<svg class="recharts-surface" width="685" height="350" viewBox="0 0 685 350">
    <title></title>
    <desc></desc>
    <defs>
        <clipPath id="recharts1-clip">
            <rect x="65" y="5" height="310" width="615"></rect>
        </clipPath>
    </defs>
    <g class="recharts-layer recharts-cartesian-axis recharts-xAxis xAxis">
        <g class="recharts-cartesian-axis-ticks">
            <g class="recharts-layer recharts-cartesian-axis-tick">
                <text stroke="none" font-size="12" orientation="bottom" width="615" height="30"
                    x="90.625" y="323" fill="#888888"
                    class="recharts-text recharts-cartesian-axis-tick-value" text-anchor="middle">
                    <tspan x="90.625" dy="0.71em">Jan</tspan>
                </text>
            </g>
            <g class="recharts-layer recharts-cartesian-axis-tick">
                <text stroke="none" font-size="12" orientation="bottom" width="615" height="30"
                    x="141.875" y="323" fill="#888888"
                    class="recharts-text recharts-cartesian-axis-tick-value" text-anchor="middle">
                    <tspan x="141.875" dy="0.71em">Feb</tspan>
                </text>
            </g>
            <g class="recharts-layer recharts-cartesian-axis-tick">
                <text stroke="none" font-size="12" orientation="bottom" width="615" height="30"
                    x="193.125" y="323" fill="#888888"
                    class="recharts-text recharts-cartesian-axis-tick-value" text-anchor="middle">
                    <tspan x="193.125" dy="0.71em">Mar</tspan>
                </text>
            </g>
            <g class="recharts-layer recharts-cartesian-axis-tick">
                <text stroke="none" font-size="12" orientation="bottom" width="615" height="30"
                    x="244.375" y="323" fill="#888888"
                    class="recharts-text recharts-cartesian-axis-tick-value" text-anchor="middle">
                    <tspan x="244.375" dy="0.71em">Apr</tspan>
                </text>
            </g>
            <g class="recharts-layer recharts-cartesian-axis-tick">
                <text stroke="none" font-size="12" orientation="bottom" width="615" height="30"
                    x="295.625" y="323" fill="#888888"
                    class="recharts-text recharts-cartesian-axis-tick-value" text-anchor="middle">
                    <tspan x="295.625" dy="0.71em">May</tspan>
                </text>
            </g>
            <g class="recharts-layer recharts-cartesian-axis-tick">
                <text stroke="none" font-size="12" orientation="bottom" width="615" height="30"
                    x="346.875" y="323" fill="#888888"
                    class="recharts-text recharts-cartesian-axis-tick-value" text-anchor="middle">
                    <tspan x="346.875" dy="0.71em">Jun</tspan>
                </text>
            </g>
            <g class="recharts-layer recharts-cartesian-axis-tick">
                <text stroke="none" font-size="12" orientation="bottom" width="615" height="30"
                    x="398.125" y="323" fill="#888888"
                    class="recharts-text recharts-cartesian-axis-tick-value" text-anchor="middle">
                    <tspan x="398.125" dy="0.71em">Jul</tspan>
                </text>
            </g>
            <g class="recharts-layer recharts-cartesian-axis-tick">
                <text stroke="none" font-size="12" orientation="bottom" width="615" height="30"
                    x="449.375" y="323" fill="#888888"
                    class="recharts-text recharts-cartesian-axis-tick-value" text-anchor="middle">
                    <tspan x="449.375" dy="0.71em">Aug</tspan>
                </text>
            </g>
            <g class="recharts-layer recharts-cartesian-axis-tick">
                <text stroke="none" font-size="12" orientation="bottom" width="615" height="30"
                    x="500.625" y="323" fill="#888888"
                    class="recharts-text recharts-cartesian-axis-tick-value" text-anchor="middle">
                    <tspan x="500.625" dy="0.71em">Sep</tspan>
                </text>
            </g>
            <g class="recharts-layer recharts-cartesian-axis-tick">
                <text stroke="none" font-size="12" orientation="bottom" width="615" height="30"
                    x="551.875" y="323" fill="#888888"
                    class="recharts-text recharts-cartesian-axis-tick-value" text-anchor="middle">
                    <tspan x="551.875" dy="0.71em">Oct</tspan>
                </text>
            </g>
            <g class="recharts-layer recharts-cartesian-axis-tick">
                <text stroke="none" font-size="12" orientation="bottom" width="615" height="30"
                    x="603.125" y="323" fill="#888888"
                    class="recharts-text recharts-cartesian-axis-tick-value" text-anchor="middle">
                    <tspan x="603.125" dy="0.71em">Nov</tspan>
                </text>
            </g>
            <g class="recharts-layer recharts-cartesian-axis-tick">
                <text stroke="none" font-size="12" orientation="bottom" width="615" height="30"
                    x="654.375" y="323" fill="#888888"
                    class="recharts-text recharts-cartesian-axis-tick-value" text-anchor="middle">
                    <tspan x="654.375" dy="0.71em">Dec</tspan>
                </text>
            </g>
        </g>
    </g>
    <g class="recharts-layer recharts-cartesian-axis recharts-yAxis yAxis">
        <g class="recharts-cartesian-axis-ticks">
            <g class="recharts-layer recharts-cartesian-axis-tick">
                <text stroke="none" font-size="12" orientation="left" width="60" height="310" x="57"
                    y="315" fill="#888888" class="recharts-text recharts-cartesian-axis-tick-value"
                    text-anchor="end">
                    <tspan x="57" dy="0.355em">$0</tspan>
                </text>
            </g>
            <g class="recharts-layer recharts-cartesian-axis-tick">
                <text stroke="none" font-size="12" orientation="left" width="60" height="310" x="57"
                    y="237.5" fill="#888888"
                    class="recharts-text recharts-cartesian-axis-tick-value" text-anchor="end">
                    <tspan x="57" dy="0.355em">$1500</tspan>
                </text>
            </g>
            <g class="recharts-layer recharts-cartesian-axis-tick">
                <text stroke="none" font-size="12" orientation="left" width="60" height="310" x="57"
                    y="160" fill="#888888" class="recharts-text recharts-cartesian-axis-tick-value"
                    text-anchor="end">
                    <tspan x="57" dy="0.355em">$3000</tspan>
                </text>
            </g>
            <g class="recharts-layer recharts-cartesian-axis-tick">
                <text stroke="none" font-size="12" orientation="left" width="60" height="310" x="57"
                    y="82.5" fill="#888888" class="recharts-text recharts-cartesian-axis-tick-value"
                    text-anchor="end">
                    <tspan x="57" dy="0.355em">$4500</tspan>
                </text>
            </g>
            <g class="recharts-layer recharts-cartesian-axis-tick">
                <text stroke="none" font-size="12" orientation="left" width="60" height="310" x="57"
                    y="9" fill="#888888" class="recharts-text recharts-cartesian-axis-tick-value"
                    text-anchor="end">
                    <tspan x="57" dy="0.355em">$6000</tspan>
                </text>
            </g>
        </g>
    </g>
    <g class="recharts-layer recharts-bar fill-primary">
        <g class="recharts-layer recharts-bar-rectangles">
            <g class="recharts-layer">
                <g class="recharts-layer recharts-bar-rectangle" role="img">
                    <path fill="currentColor" radius="4,4,0,0"
                        class="recharts-rectangle fill-primary" width="41"
                        height="152.00333333333333" name="Jan" x="70.125" y="162.99666666666667"
                        d="M70.125,166.99666666666667A 4,4,0,0,1,74.125,162.99666666666667L 107.125,162.99666666666667A 4,4,0,0,1,
        111.125,166.99666666666667L 111.125,315L 70.125,315Z"></path>
                </g>
                <g class="recharts-layer recharts-bar-rectangle" role="img">
                    <path fill="currentColor" radius="4,4,0,0"
                        class="recharts-rectangle fill-primary" width="41"
                        height="230.2266666666667" name="Feb" x="121.375" y="84.77333333333331"
                        d="M121.375,88.77333333333331A 4,4,0,0,1,125.375,84.77333333333331L 158.375,84.77333333333331A 4,4,0,0,1,
        162.375,88.77333333333331L 162.375,315L 121.375,315Z"></path>
                </g>
                <g class="recharts-layer recharts-bar-rectangle" role="img">
                    <path fill="currentColor" radius="4,4,0,0"
                        class="recharts-rectangle fill-primary" width="41" height="134.695"
                        name="Mar" x="172.625" y="180.305"
                        d="M172.625,184.305A 4,4,0,0,1,176.625,180.305L 209.625,180.305A 4,4,0,0,1,
        213.625,184.305L 213.625,315L 172.625,315Z"></path>
                </g>
                <g class="recharts-layer recharts-bar-rectangle" role="img">
                    <path fill="currentColor" radius="4,4,0,0"
                        class="recharts-rectangle fill-primary" width="41" height="285.355"
                        name="Apr" x="223.875" y="29.644999999999982"
                        d="M223.875,33.64499999999998A 4,4,0,0,1,227.875,29.644999999999982L 260.875,29.644999999999982A 4,4,0,0,1,
        264.875,33.64499999999998L 264.875,315L 223.875,315Z"></path>
                </g>
                <g class="recharts-layer recharts-bar-rectangle" role="img">
                    <path fill="currentColor" radius="4,4,0,0"
                        class="recharts-rectangle fill-primary" width="41"
                        height="145.1833333333333" name="May" x="275.125" y="169.8166666666667"
                        d="M275.125,173.8166666666667A 4,4,0,0,1,279.125,169.8166666666667L 312.125,169.8166666666667A 4,4,0,0,1,
        316.125,173.8166666666667L 316.125,315L 275.125,315Z"></path>
                </g>
                <g class="recharts-layer recharts-bar-rectangle" role="img">
                    <path fill="currentColor" radius="4,4,0,0"
                        class="recharts-rectangle fill-primary" width="41"
                        height="129.89000000000001" name="Jun" x="326.375" y="185.10999999999999"
                        d="M326.375,189.10999999999999A 4,4,0,0,1,330.375,185.10999999999999L 363.375,185.10999999999999A 4,4,0,0,1,
        367.375,189.10999999999999L 367.375,315L 326.375,315Z"></path>
                </g>
                <g class="recharts-layer recharts-bar-rectangle" role="img">
                    <path fill="currentColor" radius="4,4,0,0"
                        class="recharts-rectangle fill-primary" width="41"
                        height="122.34666666666669" name="Jul" x="377.625" y="192.6533333333333"
                        d="M377.625,196.6533333333333A 4,4,0,0,1,381.625,192.6533333333333L 414.625,192.6533333333333A 4,4,0,0,1,
        418.625,196.6533333333333L 418.625,315L 377.625,315Z"></path>
                </g>
                <g class="recharts-layer recharts-bar-rectangle" role="img">
                    <path fill="currentColor" radius="4,4,0,0"
                        class="recharts-rectangle fill-primary" width="41"
                        height="299.3566666666667" name="Aug" x="428.875" y="15.643333333333317"
                        d="M428.875,19.643333333333317A 4,4,0,0,1,432.875,15.643333333333317L 465.875,15.643333333333317A 4,4,0,0,1,
        469.875,19.643333333333317L 469.875,315L 428.875,315Z"></path>
                </g>
                <g class="recharts-layer recharts-bar-rectangle" role="img">
                    <path fill="currentColor" radius="4,4,0,0"
                        class="recharts-rectangle fill-primary" width="41" height="88.815"
                        name="Sep" x="480.125" y="226.185"
                        d="M480.125,230.185A 4,4,0,0,1,484.125,226.185L 517.125,226.185A 4,4,0,0,1,
        521.125,230.185L 521.125,315L 480.125,315Z"></path>
                </g>
                <g class="recharts-layer recharts-bar-rectangle" role="img">
                    <path fill="currentColor" radius="4,4,0,0"
                        class="recharts-rectangle fill-primary" width="41" height="195.3" name="Oct"
                        x="531.375" y="119.69999999999999"
                        d="M531.375,123.69999999999999A 4,4,0,0,1,535.375,119.69999999999999L 568.375,119.69999999999999A 4,4,0,0,1,
        572.375,123.69999999999999L 572.375,315L 531.375,315Z"></path>
                </g>
                <g class="recharts-layer recharts-bar-rectangle" role="img">
                    <path fill="currentColor" radius="4,4,0,0"
                        class="recharts-rectangle fill-primary" width="41" height="54.56" name="Nov"
                        x="582.625" y="260.44"
                        d="M582.625,264.44A 4,4,0,0,1,586.625,260.44L 619.625,260.44A 4,4,0,0,1,
        623.625,264.44L 623.625,315L 582.625,315Z"></path>
                </g>
                <g class="recharts-layer recharts-bar-rectangle" role="img">
                    <path fill="currentColor" radius="4,4,0,0"
                        class="recharts-rectangle fill-primary" width="41"
                        height="101.57666666666668" name="Dec" x="633.875" y="213.42333333333332"
                        d="M633.875,217.42333333333332A 4,4,0,0,1,637.875,213.42333333333332L 670.875,213.42333333333332A 4,4,0,0,1,
        674.875,217.42333333333332L 674.875,315L 633.875,315Z"></path>
                </g>
            </g>
        </g>
        <g class="recharts-layer"></g>
    </g>
</svg>